<svg xmlns="http://www.w3.org/2000/svg" xmlns:xlink="http://www.w3.org/1999/xlink" version="1.1" x="0px" y="0px" viewBox="0 0 100 125" enable-background="new 0 0 100 100" xml:space="preserve"><g><rect x="30.092" y="74.293" width="19.104" height="2.652"/><path d="M49.251,77H30.038v-2.762h19.213V77z M30.147,76.891h18.994v-2.543H30.147V76.891z"/></g><g><rect x="29.098" y="77.293" width="21.092" height="2.652"/><path d="M50.251,80H29.038v-2.762h21.213V80z M29.159,79.891h20.97v-2.543h-20.97V79.891z"/></g><g><rect x="31.064" y="71.377" width="17.16" height="2.652"/><path d="M48.279,74.084h-17.27v-2.762h17.27V74.084z M31.12,73.975h17.05v-2.543H31.12V73.975z"/></g><g><rect x="17.298" y="36.104" width="1.76" height="34.32"/></g><g><polygon fill="none" stroke="#000000" stroke-width="0.25" stroke-miterlimit="10" points="26.245,33.574 26.245,38.744    80.438,38.744 80.438,38.964 26.245,38.964 26.245,40.927 80.438,40.927 80.438,41.147 26.245,41.147 26.245,43.11 80.438,43.11    80.438,43.33 26.245,43.33 26.245,45.293 80.438,45.293 80.438,45.513 26.245,45.513 26.245,47.477 80.438,47.477 80.438,47.696    26.245,47.696 26.245,49.66 80.438,49.66 80.438,49.879 26.245,49.879 26.245,51.843 80.438,51.843 80.438,52.062 26.245,52.062    26.245,54.025 80.438,54.025 80.438,54.246 26.245,54.246 26.245,56.209 80.438,56.209 80.438,56.429 26.245,56.429 26.245,58.393    80.438,58.393 80.438,58.611 26.245,58.611 26.245,60.574 80.438,60.574 80.438,60.795 26.245,60.795 26.245,62.758 80.438,62.758    80.438,62.979 26.245,62.979 26.245,64.941 80.438,64.941 80.438,65.162 26.245,65.162 26.245,67.125 80.438,67.125 80.438,67.344    26.245,67.344 26.245,71.121 80.512,71.121 80.512,33.574  "/><rect x="26.098" y="38.744" fill="none" width="0.146" height="0.22"/><rect x="26.098" y="40.927" fill="none" width="0.146" height="0.22"/><rect x="26.098" y="45.293" fill="none" width="0.146" height="0.22"/><rect x="26.098" y="49.66" fill="none" width="0.146" height="0.22"/><rect x="26.098" y="54.025" fill="none" width="0.146" height="0.221"/><rect x="26.098" y="58.393" fill="none" width="0.146" height="0.219"/><rect x="26.098" y="62.758" fill="none" width="0.146" height="0.221"/><rect x="26.098" y="67.125" fill="none" width="0.146" height="0.219"/><rect x="26.098" y="43.11" fill="none" width="0.146" height="0.22"/><rect x="26.098" y="47.477" fill="none" width="0.146" height="0.22"/><rect x="26.098" y="51.843" fill="none" width="0.146" height="0.22"/><rect x="26.098" y="56.209" fill="none" width="0.146" height="0.22"/><rect x="26.098" y="60.574" fill="none" width="0.146" height="0.221"/><rect x="26.098" y="64.941" fill="none" width="0.146" height="0.221"/></g><g><rect x="57.174" y="40.898" fill="#000000" width="14.299" height="11"/><path d="M71.914,52.338H56.732V40.458h15.182V52.338z M57.613,51.459h13.42V41.338h-13.42V51.459z"/></g><g><rect x="33.798" y="42.914" fill="#000000" width="11.66" height="26.254"/><path d="M46.118,69.828h-12.98V42.254h12.98V69.828z M34.458,68.508h10.34V43.574h-10.34V68.508z"/></g><polygon points="45.393,47.04 45.393,46.6 39.709,46.6 39.709,42.602 39.269,42.602 39.269,46.6 33.585,46.6 33.585,47.04   39.269,47.04 39.269,47.773 33.659,47.773 33.659,48.213 39.269,48.213 39.269,60.533 33.659,60.533 33.659,60.973 39.269,60.973   39.269,62 33.623,62 33.623,62.439 39.269,62.439 39.269,69.48 39.709,69.48 39.709,62.439 45.355,62.439 45.355,62 39.709,62   39.709,60.973 45.319,60.973 45.319,60.533 39.709,60.533 39.709,48.213 45.319,48.213 45.319,47.773 39.709,47.773 39.709,47.04   "/><polygon points="71.217,45.903 67.77,45.903 67.77,40.954 67.33,40.954 67.33,45.903 61.17,45.903 61.17,40.88 60.73,40.88   60.73,45.903 57.43,45.903 57.43,46.343 60.73,46.343 60.73,51.916 61.17,51.916 61.17,46.343 67.33,46.343 67.33,51.807   67.77,51.807 67.77,46.343 71.217,46.343 "/><g><g><rect x="19.535" y="59.314" width="0.33" height="11.109"/></g><g><rect x="20.525" y="59.314" width="0.33" height="11.109"/></g><g><rect x="21.515" y="59.314" width="0.33" height="11.109"/></g><g><rect x="22.505" y="59.314" width="0.33" height="11.109"/></g><g><rect x="23.495" y="59.314" width="0.33" height="11.109"/></g><g><rect x="24.485" y="59.314" width="0.33" height="11.109"/></g><g><rect x="25.475" y="59.314" width="0.33" height="11.109"/></g><g><rect x="26.465" y="59.314" width="0.33" height="11.109"/></g><g><rect x="27.455" y="59.314" width="0.33" height="11.109"/></g><g><rect x="18.728" y="58.893" width="9.057" height="0.439"/></g></g><polygon points="86.818,36.104 86.818,58.893 79.174,58.893 79.174,59.314 79.174,59.332 79.174,70.424 79.504,70.424   79.504,59.332 80.164,59.332 80.164,70.424 80.492,70.424 80.492,59.332 81.152,59.332 81.152,70.424 81.482,70.424 81.482,59.332   82.143,59.332 82.143,70.424 82.473,70.424 82.473,59.332 83.133,59.332 83.133,70.424 83.463,70.424 83.463,59.332 84.123,59.332   84.123,70.424 84.453,70.424 84.453,59.332 85.113,59.332 85.113,70.424 85.443,70.424 85.443,59.332 86.104,59.332 86.104,70.424   86.434,70.424 86.434,59.332 86.818,59.332 86.818,70.424 87.094,70.424 87.424,70.424 88.578,70.424 88.578,36.104 "/><g><rect x="17.298" y="69.764" width="71.317" height="1.541"/></g><path d="M92.098,36.361l-9.826-12.76H24.485l-9.973,12.76h1.075c0.165,0.673,0.768,1.173,1.491,1.173s1.326-0.5,1.492-1.173h0.097  c0.166,0.673,0.768,1.173,1.492,1.173s1.326-0.5,1.491-1.173h0.097c0.166,0.673,0.768,1.173,1.492,1.173s1.326-0.5,1.491-1.173  h0.097c0.166,0.673,0.768,1.173,1.492,1.173c0.723,0,1.326-0.5,1.491-1.173h0.097c0.166,0.673,0.768,1.173,1.491,1.173  s1.326-0.5,1.492-1.173h0.097c0.166,0.673,0.768,1.173,1.491,1.173s1.326-0.5,1.492-1.173h0.097  c0.165,0.673,0.768,1.173,1.491,1.173s1.326-0.5,1.492-1.173h0.097c0.166,0.673,0.768,1.173,1.492,1.173s1.326-0.5,1.491-1.173  h0.097c0.166,0.673,0.768,1.173,1.492,1.173s1.326-0.5,1.491-1.173h0.097c0.166,0.673,0.768,1.173,1.492,1.173  s1.326-0.5,1.491-1.173h0.097c0.166,0.673,0.768,1.173,1.491,1.173c0.724,0,1.326-0.5,1.492-1.173h0.097  c0.166,0.673,0.768,1.173,1.491,1.173s1.326-0.5,1.491-1.173h0.098c0.165,0.673,0.768,1.173,1.491,1.173s1.326-0.5,1.491-1.173  h0.098c0.165,0.673,0.768,1.173,1.491,1.173s1.326-0.5,1.491-1.173h0.098c0.165,0.673,0.768,1.173,1.491,1.173  s1.325-0.5,1.491-1.173h0.098c0.165,0.673,0.768,1.173,1.491,1.173s1.325-0.5,1.491-1.173h0.098c0.165,0.673,0.768,1.173,1.49,1.173  c0.725,0,1.326-0.5,1.492-1.173h0.098c0.164,0.673,0.768,1.173,1.49,1.173c0.725,0,1.326-0.5,1.492-1.173h0.098  c0.164,0.673,0.768,1.173,1.49,1.173c0.725,0,1.326-0.5,1.492-1.173h0.098c0.164,0.673,0.768,1.173,1.49,1.173  c0.725,0,1.326-0.5,1.492-1.173h0.098c0.164,0.673,0.768,1.173,1.49,1.173c0.725,0,1.326-0.5,1.492-1.173h0.098  c0.164,0.673,0.768,1.173,1.49,1.173c0.725,0,1.326-0.5,1.492-1.173h0.098c0.164,0.673,0.768,1.173,1.49,1.173  c0.725,0,1.326-0.5,1.492-1.173h0.098c0.164,0.673,0.768,1.173,1.49,1.173c0.725,0,1.326-0.5,1.49-1.173H92.098z"/><g><rect x="21.478" y="69.947" width="2.2" height="8.654"/></g><g><rect x="81.758" y="69.947" width="2.201" height="8.654"/></g><text x="0" y="115" fill="#000000" font-size="5px" font-weight="bold" font-family="'Helvetica Neue', Helvetica, Arial-Unicode, Arial, Sans-serif">Created by Alina Alvarez</text><text x="0" y="120" fill="#000000" font-size="5px" font-weight="bold" font-family="'Helvetica Neue', Helvetica, Arial-Unicode, Arial, Sans-serif">from the Noun Project</text></svg>