<svg xmlns="http://www.w3.org/2000/svg" xmlns:xlink="http://www.w3.org/1999/xlink" version="1.1" x="0px" y="0px" viewBox="0 0 100 125" enable-background="new 0 0 100 100" xml:space="preserve"><g><path d="M94.891,53.252l-0.014-0.014l-7.766-8.279l-7.566-7.976l0.157-10.096l0.144-10.427v-0.005   c0.006-0.625-0.496-1.137-1.121-1.142H78.7l-12.36-0.111c-0.688-0.006-1.253,0.547-1.259,1.236v0.023l-0.045,4.989l-5.623-5.828   c-2.618-2.729-5.271-5.427-7.911-8.132c-0.005-0.005-0.018-0.015-0.021-0.02c-0.584-0.576-1.523-0.569-2.102,0.015l-0.006,0.006   l-11.062,11.22L27.315,29.992L5.377,52.615l-0.013,0.014C5.137,52.863,4.998,53.184,5,53.537c0.004,0.716,0.589,1.294,1.305,1.289   l9.367-0.059l0.194,37.155v0.013c0.003,0.566,0.466,1.025,1.035,1.022l27.373-0.134h0.009c0.495-0.002,0.895-0.406,0.892-0.901   l-0.108-22.157l10.837-0.058l0.145,22.215v0.009c0.002,0.314,0.26,0.569,0.576,0.567l27.363-0.179h0.006   c0.218-0.002,0.395-0.18,0.393-0.397l-0.25-38.249l10.447,0.262c0.104,0.002,0.207-0.033,0.288-0.109   C95.035,53.673,95.044,53.416,94.891,53.252z M90.589,50.196l3.013,2.943l-6.027,0.15c0.828-0.84,1.646-1.672,2.433-2.491   C90.202,50.595,90.395,50.396,90.589,50.196z M79.534,81.468c-3.28,3.358-6.552,6.709-9.733,9.966l-9.619-0.063   c4.709-4.6,9.75-9.521,14.801-14.455c2.947-2.87,5.89-5.725,8.765-8.53l-0.06,8.814C82.307,78.619,80.924,80.042,79.534,81.468z    M83.672,79.632l-0.078,11.892l-12.031-0.078c2.979-2.906,6.026-5.885,9.082-8.865C81.654,81.594,82.664,80.613,83.672,79.632z    M73.873,75.807c-5.198,5.322-10.385,10.633-15.191,15.555l-1.478-0.01l0.054-8.319c3.901-3.813,7.977-7.79,12.059-11.777   c4.858-4.731,9.738-9.446,14.259-13.921c0.079-0.084,0.161-0.166,0.243-0.248l-0.057,8.566   C80.525,68.961,77.207,72.385,73.873,75.807z M56.633,68.255h-0.008l-7.118-0.036c2.79-2.725,5.634-5.502,8.486-8.287   c4.858-4.731,9.737-9.448,14.256-13.921c2.229-2.267,4.411-4.431,6.431-6.534c0.168-0.172,0.33-0.341,0.495-0.51l4.363,4.311   c-0.179,0.172-0.354,0.343-0.535,0.519c-2.103,2.019-4.267,4.202-6.534,6.431c-4.474,4.519-9.188,9.398-13.922,14.256   c-1.74,1.781-3.477,3.559-5.201,5.326l0.004-0.828V68.98C57.352,68.581,57.031,68.257,56.633,68.255z M18.074,65.337   c6.701-6.544,14.805-14.458,22.93-22.393c4.859-4.734,9.737-9.448,14.256-13.921c2.229-2.267,4.411-4.431,6.432-6.534   c0.088-0.091,0.176-0.18,0.264-0.271l3.436,3.434l0.021,0.02c0.243,0.241,0.577,0.389,0.948,0.386   c0.209-0.002,0.4-0.056,0.578-0.143c-0.31,0.297-0.611,0.591-0.924,0.894c-2.103,2.019-4.267,4.202-6.533,6.431   c-4.475,4.519-9.188,9.398-13.92,14.256c-9.479,9.706-18.957,19.411-26.067,26.689c-0.503,0.52-0.991,1.021-1.469,1.514   L18.074,65.337z M18.016,76.576c0.633-0.615,1.28-1.244,1.959-1.903c7.279-7.108,16.985-16.588,26.691-26.067   c4.857-4.734,9.736-9.448,14.256-13.921c2.229-2.268,4.411-4.431,6.432-6.534c2.031-2.09,3.94-4.077,5.691-5.924   c1.586-1.658,3.016-3.212,4.322-4.608l0.199-0.002l0.125,9.075c-0.03,0.03-0.063,0.057-0.092,0.087   c-1.848,1.751-3.834,3.66-5.926,5.692c-2.102,2.019-4.266,4.202-6.531,6.431c-4.477,4.519-9.188,9.397-13.922,14.256   c-9.479,9.706-18.958,19.41-26.07,26.689c-2.83,2.91-5.269,5.424-7.193,7.402L18.016,76.576z M67.506,25.36   c0.104-0.191,0.167-0.408,0.165-0.641l-0.063-7.012l8.035-0.072c-1.154,1.074-2.397,2.23-3.707,3.482   C70.534,22.445,69.052,23.865,67.506,25.36z M60.62,20.886c-0.091,0.088-0.179,0.173-0.271,0.262   c-2.104,2.019-4.268,4.202-6.533,6.431c-4.477,4.519-9.188,9.398-13.922,14.256C32.193,49.721,24.511,57.586,18.08,64.17   l0.053-10.085c5.371-5.246,11.283-11.019,17.207-16.804c4.858-4.734,9.737-9.448,14.256-13.921   c2.229-2.267,4.411-4.431,6.431-6.534c0.09-0.093,0.177-0.183,0.267-0.276c0.358,0.358,0.711,0.722,1.071,1.08L60.62,20.886z    M29.428,32.065l11.069-11.213l9.95-10.196c1.503,1.523,3.011,3.04,4.519,4.557c-0.094,0.092-0.187,0.18-0.28,0.273   c-2.103,2.019-4.267,4.202-6.535,6.431c-4.473,4.519-9.187,9.397-13.921,14.256c-5.596,5.73-11.183,11.451-16.291,16.681   c-0.217-0.336-0.593-0.56-1.024-0.562h-0.014l-7.492-0.046L29.428,32.065z M36.662,90.986l-10.444-0.051   c1.511-1.47,3.211-3.119,5.083-4.938c3.564-3.479,7.716-7.536,12.159-11.875l-0.049,9.953   C41.005,86.54,38.732,88.867,36.662,90.986z M43.405,85.37l-0.028,5.649l-5.729-0.027C39.442,89.24,41.371,87.355,43.405,85.37z    M43.485,68.973v0.008l-0.017,3.576c-4.633,4.744-8.964,9.18-12.652,12.955c-1.959,2.02-3.719,3.828-5.266,5.42l-7.608-0.037   l0.016-3.099c2.021-1.963,4.634-4.502,7.681-7.462c7.279-7.109,16.985-16.588,26.691-26.066c4.859-4.731,9.736-9.448,14.256-13.918   c2.229-2.267,4.412-4.431,6.432-6.534c1.659-1.707,3.231-3.341,4.707-4.89l0.131,8.389v0.029c0,0.082,0.023,0.162,0.053,0.24   c-0.19,0.185-0.381,0.366-0.57,0.553c-2.104,2.02-4.268,4.202-6.533,6.431c-4.474,4.519-9.188,9.397-13.922,14.253   c-3.087,3.162-6.164,6.313-9.168,9.391l-3.44-0.02l0,0C43.841,68.189,43.487,68.539,43.485,68.973z M83.989,53.378   c-0.08,0.002-0.147,0.067-0.147,0.147L83.838,54.2c-0.564,0.559-1.131,1.12-1.708,1.688c-4.473,4.519-9.187,9.396-13.921,14.256   c-3.695,3.781-7.384,7.561-10.938,11.198l0.062-9.573c2.093-2.043,4.206-4.108,6.324-6.179c4.858-4.731,9.737-9.446,14.256-13.921   c2.229-2.267,4.412-4.431,6.431-6.534c0.178-0.183,0.352-0.363,0.527-0.543l1.301,1.285l3.079,3.008   c-0.194,0.189-0.39,0.376-0.587,0.569c-1.297,1.246-2.624,2.563-3.979,3.902L83.989,53.378z"/></g><text x="0" y="115" fill="#000000" font-size="5px" font-weight="bold" font-family="'Helvetica Neue', Helvetica, Arial-Unicode, Arial, Sans-serif">Created by Juan Pablo Bravo</text><text x="0" y="120" fill="#000000" font-size="5px" font-weight="bold" font-family="'Helvetica Neue', Helvetica, Arial-Unicode, Arial, Sans-serif">from the Noun Project</text></svg>