<svg xmlns="http://www.w3.org/2000/svg" xmlns:xlink="http://www.w3.org/1999/xlink" version="1.1" x="0px" y="0px" viewBox="0 0 100 125" enable-background="new 0 0 100 100" xml:space="preserve"><g><g><g><g><path fill="#000000" d="M81.85,83.049H17.459V45.142H3.37l45.11-31.971l9.805,6.779v-6.448h12.686v15.255l23.117,15.939      L81.85,46.03V83.049z M20.459,80.049H78.85V43.34l6.895-0.752L67.971,30.332v-13.83h-6.686v9.169l-12.784-8.838l-35.71,25.309      h7.668V80.049z"/></g></g></g></g><g><g><g><g><g><path d="M65.77,40.95c2.78,2.12,4.21,5.32,4.02,9.02c-0.43,6.22-8.93,14.12-16.87,21.049c-0.95,0.83-2.6,2.25-3.17,2.771       c-0.66-0.6-2.58-2.31-3.77-3.32C38.01,63.72,29.48,56.02,29.06,50c-0.19-3.73,1.24-6.93,4.02-9.05       c2.96-2.26,7.17-2.95,10.72-1.78c2.39,0.8,4.36,2.28,5.62,4.12c1.27-1.84,3.24-3.33,5.63-4.12C58.59,38,62.8,38.7,65.77,40.95z        M66.8,49.79c0.17-3.41-1.45-5.39-2.85-6.45c-2.2-1.67-5.32-2.19-7.96-1.32c-2.71,0.9-6.57,5.84-6.57,5.84       s-3.85-4.94-6.57-5.84c-2.63-0.87-5.76-0.35-7.96,1.32c-1.39,1.06-3.01,3.04-2.84,6.48c0.37,5.24,10.84,14.1,15.87,18.36       c0.69,0.58,1.32,1.12,1.87,1.59c0.35-0.31,0.74-0.649,1.16-1.01C55.97,64.38,66.42,55.26,66.8,49.79z"/></g></g></g></g></g><text x="0" y="115" fill="#000000" font-size="5px" font-weight="bold" font-family="'Helvetica Neue', Helvetica, Arial-Unicode, Arial, Sans-serif">Created by Martha Ormiston</text><text x="0" y="120" fill="#000000" font-size="5px" font-weight="bold" font-family="'Helvetica Neue', Helvetica, Arial-Unicode, Arial, Sans-serif">from the Noun Project</text></svg>